<?xml version="1.0" standalone="no"?>
<!DOCTYPE svg PUBLIC "-//W3C//DTD SVG 20010904//EN"
 "http://www.w3.org/TR/2001/REC-SVG-20010904/DTD/svg10.dtd">
<svg version="1.0" xmlns="http://www.w3.org/2000/svg"
 width="300.000000pt" height="300.000000pt" viewBox="0 0 300.000000 300.000000"
 preserveAspectRatio="xMidYMid meet">
<metadata>
Created by potrace 1.11, written by Peter Selinger 2001-2013
</metadata>
<g transform="translate(0.000000,300.000000) scale(0.100000,-0.100000)"
fill="#000000" stroke="none">
<path d="M1349 2996 c-2 -2 -30 -7 -63 -11 -72 -8 -233 -48 -306 -76 -59 -23
-238 -108 -255 -121 -5 -5 -39 -27 -74 -50 -35 -24 -77 -55 -93 -70 -17 -16
-32 -28 -35 -28 -5 0 -171 -169 -188 -192 -78 -102 -195 -287 -187 -296 1 -1
-11 -29 -28 -62 -17 -33 -30 -61 -29 -62 0 -2 -2 -10 -5 -18 -8 -23 -37 -129
-37 -135 0 -2 -5 -19 -10 -37 -27 -87 -34 -165 -33 -343 0 -131 7 -250 14
-250 1 0 3 -9 5 -20 8 -55 38 -172 54 -210 5 -11 15 -36 22 -55 17 -47 94
-206 121 -250 12 -19 42 -62 67 -95 25 -33 53 -69 61 -80 60 -79 322 -305 353
-305 6 0 18 -6 26 -14 20 -17 135 -79 181 -96 19 -8 37 -16 40 -20 10 -12 184
-56 315 -80 78 -15 135 -18 260 -15 88 2 176 6 195 10 19 3 44 8 55 10 121 22
328 94 434 152 404 222 686 611 767 1058 25 137 25 467 0 535 -3 8 -7 29 -10
45 -21 133 -102 333 -195 480 -231 369 -610 618 -1046 690 -44 7 -370 17 -376
11z"/>
</g>
</svg>
